<?xml version="1.0" standalone="no"?>
<!DOCTYPE svg PUBLIC "-//W3C//DTD SVG 20010904//EN"
 "http://www.w3.org/TR/2001/REC-SVG-20010904/DTD/svg10.dtd">
<svg version="1.0" xmlns="http://www.w3.org/2000/svg"
 width="446.000000pt" height="446.000000pt" viewBox="0 0 446.000000 446.000000"
 preserveAspectRatio="xMidYMid meet">
<metadata>
Created by potrace 1.14, written by Peter Selinger 2001-2017
</metadata>
<g transform="translate(0.000000,446.000000) scale(0.100000,-0.100000)"
fill="#000000" stroke="none">
<path d="M2067 4404 c-1 -1 -45 -5 -97 -8 -52 -4 -102 -9 -110 -11 -8 -3 -38
-7 -67 -9 -29 -2 -60 -7 -70 -10 -10 -2 -34 -7 -53 -10 -19 -3 -48 -8 -65 -11
-26 -5 -46 -10 -125 -29 -135 -33 -459 -158 -480 -185 -3 -3 -12 -7 -20 -9
-14 -3 -109 -60 -120 -72 -3 -3 -17 -11 -32 -19 -15 -8 -37 -22 -47 -33 -11
-10 -25 -18 -31 -18 -5 0 -10 -7 -10 -16 0 -8 -4 -13 -9 -9 -5 3 -17 -5 -25
-17 -9 -12 -16 -18 -16 -13 0 11 -110 -101 -165 -168 -22 -27 -45 -54 -50 -60
-21 -24 -49 -72 -47 -79 1 -5 -2 -8 -7 -8 -10 0 -65 -91 -105 -175 -15 -33
-34 -71 -41 -85 -15 -30 -39 -103 -36 -109 2 -2 -2 -7 -7 -10 -21 -13 -118
-373 -106 -393 3 -4 1 -8 -3 -8 -5 0 -9 -10 -10 -22 -1 -13 -6 -50 -11 -83 -6
-33 -14 -87 -17 -120 -4 -33 -9 -76 -11 -95 -14 -116 -10 -362 7 -470 18 -111
26 -155 29 -155 1 0 3 -9 5 -20 10 -75 143 -465 165 -485 3 -3 6 -12 8 -20 3
-14 10 -30 64 -147 12 -27 27 -51 32 -55 6 -4 8 -8 4 -8 -10 0 70 -152 85
-162 7 -4 8 -8 4 -8 -7 0 26 -70 46 -95 4 -5 30 -45 57 -87 78 -122 158 -224
235 -301 82 -82 245 -209 245 -191 0 4 8 -3 19 -14 10 -12 21 -22 24 -22 3 0
48 -20 100 -45 53 -25 104 -48 114 -50 10 -2 44 -13 77 -25 32 -11 62 -17 67
-14 5 3 9 1 9 -4 0 -5 6 -9 13 -10 6 0 23 -3 37 -6 49 -11 76 -16 110 -22 19
-2 47 -7 62 -10 117 -23 566 -36 723 -20 39 4 97 13 130 22 33 8 69 16 80 18
38 6 190 49 200 56 6 4 24 10 40 14 17 4 44 13 60 21 17 7 68 29 115 48 137
57 220 98 220 109 0 5 5 6 10 3 6 -3 10 -1 10 6 0 7 3 10 6 6 4 -3 25 4 48 17
83 46 287 177 306 196 3 3 25 21 50 40 87 66 191 166 183 174 -4 3 -1 6 5 6
19 0 118 117 187 220 17 25 36 51 43 58 6 7 12 17 12 22 0 5 6 15 13 22 14 15
104 195 109 218 2 8 6 17 9 20 15 11 96 265 105 325 1 11 3 20 4 20 1 0 3 8 5
19 2 10 8 39 14 65 21 96 34 242 35 396 1 181 -12 273 -58 430 -2 6 -6 24 -11
40 -23 86 -176 433 -196 446 -6 3 -10 9 -9 13 1 7 -71 157 -80 166 -3 3 -16
25 -29 50 -44 81 -146 228 -155 222 -5 -3 -6 -1 -3 5 7 10 -90 133 -105 133
-5 0 -7 4 -4 9 4 5 3 11 -1 13 -5 1 -29 26 -55 54 -26 29 -49 49 -52 46 -3 -3
-6 0 -6 7 0 12 -17 29 -84 86 -20 17 -49 42 -65 58 -16 15 -32 27 -35 27 -3 0
-17 11 -32 25 -14 13 -30 22 -35 19 -5 -3 -9 -1 -9 5 0 11 -79 68 -101 73 -8
2 -16 5 -19 8 -15 16 -70 50 -70 43 0 -4 -4 -3 -8 3 -7 12 -92 53 -197 97
-127 52 -341 111 -446 122 -15 2 -53 6 -85 10 -53 7 -391 14 -397 9z"/>
</g>
</svg>
